# xmcd CD database file
#
# Track frame offsets:
#	182
#	13215
#	24952
#	37210
#	50017
#	62757
#	77027
#	91307
#	105125
#	116252
#	128517
#	141162
#	154307
#	166535
#	179340
#	209600
#	223210
#	234942
#	249167
#	259627
#
# Disc length: 3892 seconds
#
# Revision: 0
# Processed by: cddbd v1.5.1PL2 Copyright (c) Steve Scherf et al.
# Submitted via: Feurio! 1.65 - http://www.feurio.com
#
DISCID=060f3214
DTITLE=Various Artist - Charly Blues Masterworks: Disc 1 - From Southern States To 
DTITLE=Chicago
DYEAR=1900
DGENRE=Blues
TTITLE0=Robert Johnson - Preaching Blues (Up Jumped The Devil)
TTITLE1=Robert Johnson - If I Had Possession Over Judgement Day
TTITLE2=Big Bill Broonzy - Midnight Steppers
TTITLE3=Big Bill Broonzy - Rockin' Chair Blues
TTITLE4=Muddy Waters - I Love The Life I Live, I Live The Llife I Love
TTITLE5=Muddy Waters - Rock Me
TTITLE6=Willie Mabon - I Don't Know
TTITLE7=Jimmy Rogers - Sloppy Drunk
TTITLE8=J.B. Lenoir - Mama Talk To Your Daughter
TTITLE9=Howlin' Wolf - How Many More Years
TTITLE10=Elmore James - The Sky Is Crying
TTITLE11=Elmore James - Dust My Broom
TTITLE12=Jimmy Reed - Honest I Do
TTITLE13=Jimmy Reed - Shame, Shame, Shame
TTITLE14=Albert King - I'll Play The Blues For You
TTITLE15=Eddie Taylor - Big Town Playboy
TTITLE16=Sonny Boy Williamson - Don't Start Me Talkin'
TTITLE17=Sonny Boy Williamson - Help Me
TTITLE18=Buddy Guy - First Time I Met The Blues
TTITLE19=Buddy Guy - Stone Crazy
EXTD=
EXTT0=
EXTT1=
EXTT2=
EXTT3=
EXTT4=
EXTT5=
EXTT6=
EXTT7=
EXTT8=
EXTT9=
EXTT10=
EXTT11=
EXTT12=
EXTT13=
EXTT14=
EXTT15=
EXTT16=
EXTT17=
EXTT18=
EXTT19=
PLAYORDER=
